<svg xmlns="http://www.w3.org/2000/svg" width="370" height="100" viewBox="0 0 370 100"><defs><clipPath id="474ma"><path fill="#fff" d="M0 0s46.04 27.464 103 31c56.96 3.536 191.35-.026 221 18 29.65 18.027 46 51 46 51H0z"/></clipPath></defs><g><g><path fill="#fff" d="M0 0s46.04 27.464 103 31c56.96 3.536 191.35-.026 221 18 29.65 18.027 46 51 46 51H0z"/><path fill="none" stroke="#e8e5e5" stroke-linecap="round" stroke-linejoin="round" stroke-miterlimit="20" stroke-width="2" d="M0 0v0s46.04 27.464 103 31c56.96 3.536 191.35-.026 221 18 29.65 18.027 46 51 46 51v0H0v0z" clip-path="url(&quot;#474ma&quot;)"/></g></g></svg>