<svg xmlns="http://www.w3.org/2000/svg" width="271" height="100" viewBox="0 0 271 100"><defs><clipPath id="6mvca"><path fill="#fff" d="M0 0s46.04 27.463 103 31c56.96 3.537 111.35-.028 141 18 29.65 18.026 26 51 26 51H0z"/></clipPath></defs><g><g><path fill="#f6f5f5" d="M0 0s46.04 27.463 103 31c56.96 3.537 111.35-.028 141 18 29.65 18.026 26 51 26 51H0z"/><path fill="none" stroke="#e8e5e5" stroke-linecap="round" stroke-linejoin="round" stroke-miterlimit="20" stroke-width="2" d="M0 0v0s46.04 27.463 103 31c56.96 3.537 111.35-.028 141 18 29.65 18.026 26 51 26 51v0H0v0z" clip-path="url(&quot;#6mvca&quot;)"/></g></g></svg>